<svg width="234" height="28" viewBox="0 0 234 28" fill="none" xmlns="http://www.w3.org/2000/svg">
<path d="M162.555 26.1753C161.212 25.3805 160.137 24.2034 159.466 22.7943C158.707 21.1554 158.336 19.3633 158.383 17.5577V17.5238C158.335 15.7178 158.707 13.9254 159.469 12.2875C160.143 10.8798 161.22 9.7043 162.563 8.91057C164.033 8.13588 165.669 7.73101 167.33 7.73101C168.991 7.73101 170.628 8.13588 172.097 8.91057C173.438 9.70485 174.511 10.8797 175.182 12.2858C175.944 13.9249 176.316 15.7182 176.269 17.5251V17.5591C176.316 19.3646 175.945 21.1566 175.187 22.7957C174.518 24.2035 173.446 25.3804 172.106 26.1767C170.634 26.9535 168.994 27.3595 167.33 27.3595C165.665 27.3595 164.025 26.9535 162.553 26.1767L162.555 26.1753ZM164.58 11.6754C163.792 12.2442 163.191 13.0337 162.851 13.9442C162.425 15.0892 162.222 16.3053 162.253 17.5268V17.5608C162.222 18.7799 162.425 19.9937 162.85 21.1369C163.188 22.0486 163.789 22.8394 164.577 23.4095C165.402 23.9256 166.354 24.1993 167.327 24.1993C168.3 24.1993 169.253 23.9256 170.077 23.4095C170.864 22.8381 171.464 22.0467 171.803 21.1349C172.227 19.9925 172.43 18.7793 172.4 17.5608V17.5268C172.431 16.3055 172.228 15.0895 171.801 13.9445C171.462 13.0344 170.861 12.245 170.074 11.6757C169.25 11.1615 168.298 10.8889 167.327 10.8889C166.355 10.8889 165.404 11.1615 164.58 11.6757L164.58 11.6754ZM44.936 26.1648C43.6054 25.3629 42.5416 24.1855 41.8782 22.7808C41.1304 21.1585 40.7647 19.3863 40.8092 17.6005V17.5832C40.7687 15.8 41.1343 14.0311 41.8782 12.41C42.5373 10.9962 43.587 9.80035 44.9034 8.96353C46.2926 8.16288 47.8662 7.73762 49.4696 7.72958C51.0729 7.72154 52.6508 8.13101 54.0479 8.9177C55.3274 9.71698 56.3475 10.8705 56.9841 12.2383C57.6976 13.797 58.0485 15.4972 58.0104 17.2111V18.5382H44.6189C44.6114 19.5683 44.8243 20.5882 45.2432 21.5294C45.6231 22.3666 46.2449 23.071 47.0286 23.5517C47.8602 24.0359 48.8101 24.2792 49.772 24.2545C50.4855 24.2706 51.1958 24.1556 51.8677 23.915C52.3965 23.7234 52.8857 23.4367 53.3112 23.069C53.6361 22.7957 53.9018 22.459 54.092 22.0794L54.1548 21.9419L57.8091 21.9388L57.7711 22.094C57.5966 22.7581 57.3112 23.3879 56.9271 23.9571C56.4896 24.6084 55.9464 25.1821 55.32 25.6545C54.5941 26.1999 53.7809 26.6181 52.915 26.8913C51.8717 27.2177 50.7829 27.375 49.6899 27.3574C48.0258 27.4038 46.3811 26.9912 44.936 26.1648ZM54.2686 15.8382C54.2159 15.0248 54.0225 14.2268 53.6972 13.4794C53.3464 12.6617 52.7566 11.969 52.0052 11.4924C51.4383 11.1372 50.8018 10.9079 50.1387 10.8199C49.4756 10.732 48.8013 10.7874 48.1615 10.9826C47.5216 11.1777 46.9311 11.508 46.43 11.9511C45.9288 12.3941 45.5286 12.9396 45.2565 13.5507C44.9261 14.2726 44.7249 15.0468 44.662 15.8382H54.2686ZM211.282 26.6299C210.345 26.1951 209.556 25.4943 209.014 24.6148C208.471 23.7353 208.199 22.7157 208.231 21.6828V21.6489C208.203 20.6214 208.49 19.6098 209.054 18.7507C209.657 17.9018 210.491 17.2436 211.457 16.8543C212.676 16.3588 213.974 16.0823 215.289 16.0375L220.39 15.7299V14.0664C220.418 13.6212 220.346 13.1752 220.178 12.7617C220.011 12.3482 219.752 11.9779 219.421 11.6784C218.776 11.1278 217.817 10.8525 216.545 10.8525C215.654 10.8169 214.769 11.0064 213.972 11.4034C213.34 11.7305 212.859 12.2887 212.629 12.9617L212.609 13.0204H208.967L208.984 12.8938C209.123 11.8862 209.556 10.942 210.229 10.1799C210.962 9.3709 211.879 8.75171 212.904 8.37554C214.121 7.92533 215.412 7.70657 216.71 7.73051C218.098 7.69069 219.479 7.94847 220.759 8.48655C221.803 8.93675 222.684 9.69658 223.282 10.6634C223.88 11.6962 224.179 12.8751 224.145 14.0681V26.9986H220.39V24.3166H220.098C219.741 24.9391 219.272 25.4904 218.715 25.9428C218.151 26.3978 217.508 26.7455 216.819 26.9687C216.067 27.2088 215.281 27.3271 214.491 27.319C213.383 27.338 212.285 27.1023 211.283 26.6299H211.282ZM215.798 18.6987C214.496 18.7732 213.539 19.0461 212.927 19.5176C212.626 19.7484 212.386 20.0487 212.226 20.3926C212.066 20.7365 211.992 21.114 212.01 21.4927V21.5267C211.994 21.9213 212.076 22.3137 212.249 22.6687C212.422 23.0237 212.681 23.3301 213.002 23.5606C213.737 24.0707 214.619 24.3274 215.514 24.2918C216.384 24.3079 217.246 24.1145 218.026 23.7279C218.728 23.3797 219.326 22.8514 219.757 22.1968C220.18 21.5466 220.4 20.7855 220.389 20.0102V18.4044L215.798 18.6987ZM120.467 26.6299C119.53 26.1951 118.741 25.4943 118.198 24.6148C117.656 23.7353 117.384 22.7157 117.416 21.6828V21.6489C117.387 20.6214 117.675 19.6098 118.239 18.7507C118.842 17.9017 119.676 17.2435 120.642 16.8543C121.861 16.3588 123.158 16.0823 124.474 16.0375L129.574 15.7299V14.0664C129.603 13.6211 129.531 13.1751 129.363 12.7617C129.195 12.3482 128.937 11.9779 128.606 11.6784C127.96 11.1278 127.001 10.8525 125.729 10.8525C124.839 10.8169 123.954 11.0064 123.157 11.4034C122.525 11.7304 122.044 12.2887 121.814 12.9617L121.793 13.0204H118.152L118.169 12.8938C118.307 11.8862 118.74 10.9419 119.414 10.1799C120.146 9.3709 121.064 8.75171 122.088 8.37554C123.305 7.92538 124.596 7.70662 125.894 7.73051C127.282 7.69067 128.663 7.94845 129.943 8.48655C130.988 8.93673 131.868 9.69656 132.467 10.6634C133.065 11.6962 133.364 12.8751 133.33 14.0681V26.9986H129.574V24.3166H129.283C128.926 24.939 128.457 25.4902 127.9 25.9428C127.336 26.3977 126.693 26.7455 126.003 26.9687C125.251 27.2089 124.465 27.3271 123.675 27.319C122.567 27.338 121.47 27.1023 120.467 26.6299ZM124.982 18.6987C123.681 18.7732 122.724 19.0461 122.111 19.5176C121.811 19.7485 121.57 20.0487 121.411 20.3926C121.251 20.7366 121.177 21.114 121.195 21.4927V21.5267C121.179 21.9213 121.261 22.3137 121.434 22.6687C121.607 23.0237 121.866 23.3301 122.186 23.5606C122.922 24.0707 123.804 24.3274 124.699 24.2918C125.569 24.3078 126.431 24.1144 127.211 23.7279C127.913 23.3796 128.511 22.8513 128.942 22.1968C129.365 21.5466 129.585 20.7855 129.574 20.0102V18.4044L124.982 18.6987ZM201.374 26.5263C200.899 26.047 200.633 25.3993 200.633 24.7243C200.633 24.0493 200.899 23.4017 201.374 22.9223C201.731 22.5674 202.184 22.3259 202.677 22.2285C203.17 22.131 203.682 22.1819 204.146 22.3747C204.61 22.5675 205.007 22.8936 205.286 23.3118C205.565 23.73 205.714 24.2215 205.714 24.7243C205.714 25.2271 205.565 25.7187 205.286 26.1369C205.007 26.5551 204.61 26.8812 204.146 27.074C203.682 27.2668 203.17 27.3177 202.677 27.2202C202.184 27.1227 201.731 26.8813 201.374 26.5263ZM140.661 25.9254C139.739 25.1333 139.278 23.8319 139.278 22.0213V11.0799H136.322V8.08901H139.278V3.33616H143.145V8.08901H147.198V11.0799H143.145V21.1037C143.145 22.1165 143.349 22.8489 143.756 23.3009C144.164 23.7528 144.834 23.9792 145.767 23.9798C146.055 23.9798 146.299 23.9735 146.499 23.9608C146.699 23.9481 146.932 23.9301 147.197 23.9068V26.9232C146.898 26.9741 146.576 27.0185 146.229 27.0563C145.872 27.0948 145.512 27.1139 145.152 27.1133C143.081 27.1126 141.584 26.7167 140.661 25.9254ZM32.345 25.9254C31.4232 25.1333 30.9623 23.8319 30.9623 22.0213V11.0799H28.0067V8.08901H30.9623V3.33616H34.8291V8.08901H38.8822V11.0799H34.8291V21.1037C34.8291 22.1165 35.0328 22.8489 35.4401 23.3009C35.8475 23.7528 36.5177 23.9792 37.4506 23.9798C37.7387 23.9798 37.9828 23.9735 38.1829 23.9608C38.3829 23.9481 38.6156 23.9301 38.8809 23.9068V26.9232C38.5823 26.9741 38.2598 27.0185 37.9133 27.0563C37.5556 27.0948 37.196 27.1139 36.8361 27.1133C34.7641 27.1126 33.2671 26.7167 32.345 25.9254ZM228.886 26.9986V8.08901H232.668V26.9986H228.886ZM192.154 26.9986V15.6474C192.154 14.0767 191.823 12.9047 191.163 12.1313C190.502 11.358 189.478 10.9713 188.09 10.9713C187.255 10.9496 186.431 11.158 185.707 11.5739C185.035 11.9786 184.495 12.5705 184.155 13.2771C183.771 14.0981 183.583 14.9973 183.607 15.9034V26.9986H179.827V8.08901H183.609V10.9597H183.901C184.334 9.98149 185.049 9.15466 185.954 8.585C186.991 7.98064 188.179 7.68402 189.379 7.72983C191.499 7.72983 193.122 8.33876 194.248 9.55662C195.374 10.7745 195.937 12.509 195.937 14.7603V26.9986H192.154ZM150.548 26.9986V8.08901H154.329V26.9986H150.548ZM110.829 26.9986V14.8713C110.854 14.1276 110.718 13.3872 110.431 12.7006C110.185 12.1463 109.76 11.6904 109.224 11.4055C108.59 11.095 107.889 10.9459 107.184 10.9713C106.448 10.9541 105.721 11.143 105.086 11.5168C104.499 11.87 104.02 12.3758 103.698 12.9804C103.364 13.6155 103.196 14.3244 103.207 15.0418V26.9986H99.4251V14.4874C99.4414 13.8358 99.2894 13.1911 98.9837 12.6154C98.6956 12.0937 98.2582 11.6699 97.7276 11.3984C97.1286 11.1012 96.4661 10.9546 95.7976 10.9713C95.0763 10.9615 94.3683 11.1662 93.7634 11.5593C93.158 11.9555 92.6686 12.5053 92.345 13.1525C91.9949 13.8483 91.8177 14.6183 91.8287 15.3972V26.9986H88.0474V8.08901H91.8287V10.9981H92.1203C92.4977 10.0059 93.1836 9.161 94.0771 8.58772C95.0371 7.99793 96.1481 7.70043 97.2744 7.73153C98.0646 7.7194 98.8495 7.86182 99.585 8.1508C100.249 8.41642 100.85 8.81699 101.35 9.32713C101.849 9.84048 102.242 10.4461 102.508 11.1101H102.8C103.119 10.4326 103.573 9.82713 104.133 9.33052C104.715 8.81615 105.389 8.41614 106.118 8.15148C106.899 7.86707 107.725 7.72485 108.556 7.73153C109.69 7.69831 110.814 7.95243 111.823 8.47026C112.715 8.95276 113.437 9.69648 113.894 10.6016C114.4 11.6495 114.646 12.8038 114.613 13.9669V26.9986H110.829ZM79.2733 26.9986V8.08901H83.0545V26.9986H79.2733ZM70.5824 26.9986V0.683728H74.3636V26.9986H70.5824ZM61.775 26.9986V0.683728H65.5579V26.9986H61.775ZM21.5713 26.9986V15.6474C21.5713 14.0767 21.241 12.9047 20.5803 12.1313C19.9197 11.358 18.8953 10.9713 17.5073 10.9713C16.6727 10.9495 15.8483 11.158 15.1244 11.5739C14.4525 11.9786 13.9132 12.5705 13.5726 13.2771C13.1885 14.0981 13.0009 14.9973 13.0247 15.9034V26.9986H9.2431V8.08901H13.0247V10.9597H13.3163C13.7492 9.98143 14.4643 9.15458 15.3699 8.585C16.407 7.98064 17.5948 7.68402 18.7943 7.72983C20.9147 7.72983 22.5378 8.33876 23.6636 9.55662C24.7893 10.7745 25.3523 12.5089 25.3526 14.76V26.9986H21.5713ZM0.467976 26.9986V8.08901H4.24955V26.9986H0.467976ZM229.122 4.02261C228.9 3.80557 228.723 3.54624 228.603 3.25989C228.482 2.97354 228.42 2.66594 228.42 2.3552C228.42 2.04447 228.482 1.73687 228.603 1.45052C228.723 1.16416 228.9 0.904838 229.122 0.687802C229.568 0.247324 230.17 0.000333916 230.797 0.000333916C231.424 0.000333916 232.026 0.247324 232.472 0.687802C232.802 1.0188 233.026 1.44022 233.116 1.89874C233.206 2.35725 233.159 2.83224 232.979 3.26359C232.799 3.69495 232.495 4.06328 232.106 4.32198C231.717 4.58067 231.26 4.71809 230.793 4.71686C230.482 4.72033 230.173 4.66058 229.886 4.54123C229.599 4.42189 229.339 4.24544 229.122 4.02261ZM150.785 4.02261C150.562 3.80557 150.386 3.54624 150.265 3.25989C150.144 2.97354 150.082 2.66594 150.082 2.3552C150.082 2.04447 150.144 1.73687 150.265 1.45052C150.386 1.16416 150.562 0.904838 150.785 0.687802C151.231 0.247324 151.833 0.000333916 152.459 0.000333916C153.086 0.000333916 153.688 0.247324 154.134 0.687802C154.464 1.01878 154.688 1.44017 154.779 1.89865C154.869 2.35713 154.821 2.8321 154.641 3.26344C154.462 3.69478 154.158 4.06311 153.769 4.32183C153.38 4.58055 152.923 4.71803 152.455 4.71686C152.144 4.72038 151.836 4.66065 151.549 4.5413C151.262 4.42196 151.002 4.24549 150.785 4.02261ZM79.5069 4.02261C79.2845 3.80557 79.1078 3.54624 78.9871 3.25989C78.8665 2.97354 78.8043 2.66594 78.8043 2.3552C78.8043 2.04447 78.8665 1.73687 78.9871 1.45052C79.1078 1.16416 79.2845 0.904838 79.5069 0.687802C79.9529 0.247345 80.5546 0.000363702 81.1814 0.000363702C81.8083 0.000363702 82.4099 0.247345 82.856 0.687802C83.1858 1.0188 83.4101 1.44022 83.5004 1.89874C83.5907 2.35725 83.5429 2.83224 83.3631 3.26359C83.1834 3.69495 82.8797 4.06328 82.4905 4.32198C82.1013 4.58067 81.6442 4.71809 81.1768 4.71686C80.866 4.72034 80.5576 4.6606 80.2706 4.54125C79.9835 4.4219 79.7237 4.24545 79.5069 4.02261ZM0.702563 4.02261C0.480185 3.80557 0.303469 3.54624 0.182813 3.25989C0.062157 2.97354 0 2.66594 0 2.3552C0 2.04447 0.062157 1.73687 0.182813 1.45052C0.303469 1.16416 0.480185 0.904838 0.702563 0.687802C0.920398 0.466729 1.18061 0.291895 1.46761 0.173768C1.75462 0.0556416 2.06251 -0.00334749 2.37285 0.000335211C2.68476 -0.00499276 2.99449 0.0532426 3.28317 0.171492C3.57185 0.28974 3.83342 0.465527 4.05197 0.688141C4.27186 0.906585 4.44638 1.16637 4.56547 1.45253C4.68456 1.7387 4.74587 2.04559 4.74587 2.35554C4.74587 2.6655 4.68456 2.97239 4.56547 3.25856C4.44638 3.54472 4.27186 3.8045 4.05197 4.02295C3.83442 4.24734 3.57317 4.42474 3.28437 4.54421C2.99557 4.66368 2.68534 4.72267 2.37285 4.71754C2.06188 4.72092 1.75347 4.66106 1.46634 4.5416C1.17921 4.42214 0.919362 4.24557 0.702563 4.02261Z" fill="url(#paint0_linear_173_475)"/>
<defs>
<linearGradient id="paint0_linear_173_475" x1="2.09845" y1="13.6805" x2="233.161" y2="13.6805" gradientUnits="userSpaceOnUse">
<stop stop-color="#03C2D1"/>
<stop offset="1" stop-color="#CC0397"/>
</linearGradient>
</defs>
</svg>
